<?xml version="1.0" encoding="utf-8"?>
<!-- Generator: Adobe Illustrator 19.1.0, SVG Export Plug-In . SVG Version: 6.00 Build 0)  -->
<svg version="1.1" baseProfile="tiny" id="Layer_1" xmlns="http://www.w3.org/2000/svg" xmlns:xlink="http://www.w3.org/1999/xlink"
	 x="0px" y="0px" viewBox="0 0 566.9 137.4" xml:space="preserve">
<g>
	<path fill-rule="evenodd" fill="#009EE3" d="M49.5,32.3h38.7c20.8,0,28.6,10.5,27.4,26C113.6,83.9,98.2,98,77.7,98H67.4
		c-2.8,0-4.7,1.9-5.5,6.9l-4.4,29.3c-0.3,1.9-1.3,3-2.8,3.2H30.4c-2.3,0-3.1-1.7-2.5-5.5l14.8-93.9C43.3,34.1,45.4,32.3,49.5,32.3z"
		/>
	<path fill-rule="evenodd" fill="#113984" d="M217.7,30.6c13.1,0,25.1,7.1,23.5,24.8c-2,21-13.2,32.6-31,32.7h-15.5
		c-2.2,0-3.3,1.8-3.9,5.6l-3,19.1c-0.5,2.9-1.9,4.3-4.1,4.3h-14.4c-2.3,0-3.1-1.5-2.6-4.8l11.9-76.4c0.6-3.8,2-5.2,4.6-5.2H217.7
		L217.7,30.6z M194.2,71.5l11.8,0c7.3-0.3,12.2-5.4,12.7-14.5c0.3-5.7-3.5-9.7-9.6-9.7l-11.1,0.1L194.2,71.5L194.2,71.5z
		 M280.4,111.1c1.3-1.2,2.7-1.8,2.5-0.3l-0.5,3.5c-0.2,1.8,0.5,2.8,2.2,2.8h12.8c2.2,0,3.2-0.9,3.7-4.2l7.9-49.6
		c0.4-2.5-0.2-3.7-2.1-3.7h-14.1c-1.3,0-1.9,0.7-2.2,2.7l-0.5,3.1c-0.3,1.6-1,1.9-1.7,0.3c-2.4-5.7-8.5-8.2-17-8
		C251.6,58,238.3,73,236.8,92.2c-1.1,14.9,9.6,26.6,23.6,26.6C270.7,118.8,275.2,115.8,280.4,111.1L280.4,111.1z M269.6,103.5
		c-8.5,0-14.4-6.8-13.2-15.1c1.2-8.3,9.2-15.1,17.7-15.1s14.4,6.8,13.2,15.1C286.1,96.7,278.1,103.5,269.6,103.5L269.6,103.5z
		 M334.1,59.5h-13c-2.7,0-3.8,2-2.9,4.5l16.1,47.3l-15.9,22.5c-1.3,1.9-0.3,3.6,1.6,3.6h14.6c2.2,0,3.2-0.6,4.3-2.1l49.6-71.2
		c1.5-2.2,0.8-4.5-1.7-4.5l-13.8,0c-2.4,0-3.3,0.9-4.7,2.9l-20.7,30l-9.2-30.1C338,60.4,336.6,59.5,334.1,59.5z"/>
	<path fill-rule="evenodd" fill="#009EE3" d="M440.3,30.6c13.1,0,25.1,7.1,23.5,24.8c-2,21-13.2,32.6-31,32.7h-15.5
		c-2.2,0-3.3,1.8-3.9,5.6l-3,19.1c-0.5,2.9-1.9,4.3-4.1,4.3h-14.4c-2.3,0-3.1-1.5-2.6-4.8l11.9-76.4c0.6-3.8,2-5.2,4.6-5.2H440.3
		L440.3,30.6z M416.8,71.5l11.8,0c7.3-0.3,12.2-5.4,12.7-14.5c0.3-5.7-3.5-9.7-9.6-9.7l-11.1,0.1L416.8,71.5L416.8,71.5z M503,111.1
		c1.3-1.2,2.7-1.8,2.5-0.3l-0.5,3.5c-0.2,1.8,0.5,2.8,2.2,2.8h12.8c2.2,0,3.2-0.9,3.7-4.2l7.9-49.6c0.4-2.5-0.2-3.7-2.1-3.7h-14.1
		c-1.3,0-1.9,0.7-2.2,2.7l-0.5,3.1c-0.3,1.6-1,1.9-1.7,0.3c-2.4-5.7-8.5-8.2-17-8C474.3,58,460.9,73,459.5,92.2
		c-1.1,14.9,9.6,26.6,23.6,26.6C493.3,118.8,497.9,115.8,503,111.1L503,111.1z M492.3,103.5c-8.5,0-14.4-6.8-13.2-15.1
		c1.2-8.3,9.2-15.1,17.7-15.1c8.5,0,14.4,6.8,13.2,15.1C508.8,96.7,500.8,103.5,492.3,103.5L492.3,103.5z M551.4,117.2h-14.8
		c-1.2,0-2-0.9-1.8-2l13-82.4c0.2-1.1,1.3-2,2.5-2h14.8c1.2,0,2,0.9,1.8,2l-13,82.4C553.7,116.3,552.6,117.2,551.4,117.2z"/>
	<path fill-rule="evenodd" fill="#113984" d="M25.2,0H64C75,0,87.9,0.4,96.6,8c5.8,5.1,8.8,13.2,8.1,22
		c-2.4,29.6-20.1,46.2-43.8,46.2H41.7c-3.3,0-5.4,2.2-6.3,8l-5.3,34c-0.3,2.2-1.3,3.5-3,3.7H3.1c-2.7,0-3.6-2-2.9-6.4L17.4,6.4
		C18.1,2.1,20.5,0,25.2,0z"/>
	<path fill-rule="evenodd" fill="#172C70" d="M35.9,80.7l6.8-42.9c0.6-3.8,2.7-5.6,6.7-5.6h38.7c6.4,0,11.6,1,15.7,2.8
		c-3.9,26.4-20.9,41-43.3,41H41.5C39,76.2,37.1,77.5,35.9,80.7z"/>
</g>
</svg>
